<svg xmlns="http://www.w3.org/2000/svg" viewBox="0 0 84.2 84.21"><defs><style>.cls-1{fill:#ebf0f1;}</style></defs><title>beisbol</title><g id="Capa_2" data-name="Capa 2"><g id="Capa_1-2" data-name="Capa 1"><path class="cls-1" d="M15.64,46.29a50.54,50.54,0,0,0,7.06,7.32,21.11,21.11,0,0,0,26.39-33,50.2,50.2,0,0,0-8.69-5.28C35,12.55,29.31,9.63,27.34,2.67A42.14,42.14,0,0,0,.4,36.31c7.22.41,11.3,5.27,15.24,10"/><path class="cls-1" d="M32.65,1.07C34,5.78,37.73,7.73,43,10.44a55.22,55.22,0,0,1,9.6,5.88A26.66,26.66,0,1,1,19.23,58a56.14,56.14,0,0,1-7.84-8.09c-3.78-4.51-6.51-7.77-11.39-8A42.1,42.1,0,1,0,32.65,1.07"/></g></g></svg>