<svg xmlns="http://www.w3.org/2000/svg" xmlns:xlink="http://www.w3.org/1999/xlink" viewBox="0 0 258.44 193.48"><defs><style>.cls-1{fill:none;}.cls-2{clip-path:url(#clip-path);}.cls-3{fill:url(#Degradado_sin_nombre_36);}.cls-4{clip-path:url(#clip-path-2);}.cls-5{fill:url(#Degradado_sin_nombre_36-2);}.cls-6{clip-path:url(#clip-path-3);}.cls-7{fill:url(#Degradado_sin_nombre_36-3);}.cls-8{clip-path:url(#clip-path-4);}.cls-9{fill:url(#Degradado_sin_nombre_36-4);}.cls-10{clip-path:url(#clip-path-5);}.cls-11{fill:url(#Degradado_sin_nombre_36-5);}.cls-12{clip-path:url(#clip-path-6);}.cls-13{fill:url(#Degradado_sin_nombre_36-6);}.cls-14{clip-path:url(#clip-path-7);}.cls-15{fill:url(#Degradado_sin_nombre_36-7);}.cls-16{clip-path:url(#clip-path-8);}.cls-17{fill:url(#Degradado_sin_nombre_36-8);}.cls-18{clip-path:url(#clip-path-9);}.cls-19{fill:url(#Degradado_sin_nombre_36-9);}.cls-20{clip-path:url(#clip-path-10);}.cls-21{fill:url(#Degradado_sin_nombre_36-10);}.cls-22{clip-path:url(#clip-path-11);}.cls-23{fill:url(#Degradado_sin_nombre_36-11);}.cls-24{clip-path:url(#clip-path-12);}.cls-25{fill:url(#Degradado_sin_nombre_36-12);}</style><clipPath id="clip-path"><path class="cls-1" d="M28.21,69.54a2.61,2.61,0,0,0-1.59.7,3,3,0,0,0-.9,1.78L13.8,147.28c-.21,1.33.31,2.08,1.58,2.26h16.4a2.55,2.55,0,0,0,2.85-2.31l3.91-24.69H62.75a2.38,2.38,0,0,0,1.84-.84,3.43,3.43,0,0,0,.91-1.77l2.06-13a2,2,0,0,0-.42-1.83,2.33,2.33,0,0,0-1.65-.57H41.32l2.69-17H76.74a2.56,2.56,0,0,0,2-.81,3.15,3.15,0,0,0,.9-1.7l2.06-13a2.4,2.4,0,0,0-.32-1.83,2,2,0,0,0-1.7-.68Z"/></clipPath><linearGradient id="Degradado_sin_nombre_36" x1="-200.6" y1="518.79" x2="-199.6" y2="518.79" gradientTransform="matrix(123.54, 0, 0, -123.54, 24805.03, 64202.79)" gradientUnits="userSpaceOnUse"><stop offset="0" stop-color="#d57a71"/><stop offset="1" stop-color="#ca4c3f"/></linearGradient><clipPath id="clip-path-2"><path class="cls-1" d="M142.18,48.54a2.8,2.8,0,0,0-1.93.71,2.75,2.75,0,0,0-.94,1.68L128.69,118a19.68,19.68,0,0,1-2.07,6.35A16.84,16.84,0,0,1,123,129a14.57,14.57,0,0,1-4.69,2.82,15.18,15.18,0,0,1-5.29.95,14.6,14.6,0,0,1-4.9-.81,9.17,9.17,0,0,1-3.83-2.58,10.46,10.46,0,0,1-2.21-4.57,17.7,17.7,0,0,1,0-6.81l7.3-46.07a1.79,1.79,0,0,0-.51-1.59,2.54,2.54,0,0,0-1.71-.79H90.88a2.31,2.31,0,0,0-1.66.74,2.89,2.89,0,0,0-.88,1.65l-7.25,45.75q-1.47,9.33.3,15.76a22.54,22.54,0,0,0,5.87,10.42,23.64,23.64,0,0,0,10,5.75,45.08,45.08,0,0,0,12.79,1.76,52,52,0,0,0,13.32-1.71A34.65,34.65,0,0,0,135.25,144a34.27,34.27,0,0,0,9.16-10.39,45,45,0,0,0,5.33-15.95l10.57-66.75a2,2,0,0,0-.45-1.65,2.2,2.2,0,0,0-1.83-.74Z"/></clipPath><linearGradient id="Degradado_sin_nombre_36-2" x1="-200.6" y1="518.77" x2="-199.6" y2="518.77" gradientTransform="matrix(123.54, 0, 0, -123.54, 24855.38, 64191.4)" xlink:href="#Degradado_sin_nombre_36"/><clipPath id="clip-path-3"><path class="cls-1" d="M178.89,28.54a2.68,2.68,0,0,0-1.88.7,2.8,2.8,0,0,0-.9,1.66L157.69,147.19a2,2,0,0,0,.53,1.71,2.12,2.12,0,0,0,1.56.64h15.85a2.68,2.68,0,0,0,1.88-.69,2.84,2.84,0,0,0,.91-1.66L196.84,30.9a2,2,0,0,0-.54-1.71,2.13,2.13,0,0,0-1.56-.65Z"/></clipPath><linearGradient id="Degradado_sin_nombre_36-3" x1="-200.6" y1="518.79" x2="-199.6" y2="518.79" gradientTransform="matrix(123.54, 0, 0, -123.54, 24891.68, 64182.44)" xlink:href="#Degradado_sin_nombre_36"/><clipPath id="clip-path-4"><path class="cls-1" d="M216.1,7.54a2.68,2.68,0,0,0-1.88.7,2.89,2.89,0,0,0-.91,1.67L191.57,147.18a2,2,0,0,0,.53,1.72,2.16,2.16,0,0,0,1.57.64h15.88a2.64,2.64,0,0,0,1.88-.7,2.73,2.73,0,0,0,.91-1.66L234.08,9.91a2,2,0,0,0-.53-1.72A2.13,2.13,0,0,0,232,7.54Z"/></clipPath><linearGradient id="Degradado_sin_nombre_36-4" x1="-200.6" y1="518.79" x2="-199.6" y2="518.79" gradientTransform="matrix(123.54, 0, 0, -123.54, 24910.83, 64172.04)" xlink:href="#Degradado_sin_nombre_36"/><clipPath id="clip-path-5"><path class="cls-1" d="M20.41,176.53c.36-.72.71-1.44,1.06-2.18l1.05-2.19c.36-.72.7-1.4,1-2l1.48,8.4H19.39q.49-.93,1-2m2.13-15a1,1,0,0,0-.32.07,1.54,1.54,0,0,0-.34.17,1.31,1.31,0,0,0-.28.24.6.6,0,0,0-.16.23L7.52,187.82q-.21.36,0,.54a.77.77,0,0,0,.54.18h6a1,1,0,0,0,1-.61c.3-.57.6-1.13.91-1.69l.91-1.7h8.85l.36,1.7c.13.56.25,1.12.39,1.69a.73.73,0,0,0,.24.47.92.92,0,0,0,.57.14H33a1,1,0,0,0,.73-.22.59.59,0,0,0,.15-.6l-5.65-24.61-.29-1a2.2,2.2,0,0,0-.27-.34.72.72,0,0,0-.5-.19Z"/></clipPath><linearGradient id="Degradado_sin_nombre_36-5" x1="-200.6" y1="518.81" x2="-199.6" y2="518.81" gradientTransform="matrix(123.54, 0, 0, -123.54, 24847, 64270.85)" xlink:href="#Degradado_sin_nombre_36"/><clipPath id="clip-path-6"><path class="cls-1" d="M48.12,167.54h3.81a2.17,2.17,0,0,1,1.11.27,2.21,2.21,0,0,1,.76.69,2.53,2.53,0,0,1,.4,1,3.2,3.2,0,0,1,0,1.07,3.52,3.52,0,0,1-.37,1.12,3.62,3.62,0,0,1-.69,1,3.17,3.17,0,0,1-1,.67,2.77,2.77,0,0,1-1.21.26H47.17Zm-5.48-6a.9.9,0,0,0-.64.23,1.09,1.09,0,0,0-.29.61l-4,25.38a.68.68,0,0,0,.12.59.74.74,0,0,0,.55.19h5.39a.91.91,0,0,0,1-.82l1.45-9.18H52a8.38,8.38,0,0,0,3.4-.74,10.51,10.51,0,0,0,4.89-4.61,9.78,9.78,0,0,0,1.06-3.09,8.41,8.41,0,0,0,.07-2.12,7.37,7.37,0,0,0-.45-2,7.52,7.52,0,0,0-.94-1.77,6.46,6.46,0,0,0-1.4-1.41,6.36,6.36,0,0,0-1.82-.92,7.26,7.26,0,0,0-2.24-.34Z"/></clipPath><linearGradient id="Degradado_sin_nombre_36-6" x1="-200.6" y1="518.79" x2="-199.6" y2="518.79" gradientTransform="matrix(123.54, 0, 0, -123.54, 24870.95, 64269.01)" xlink:href="#Degradado_sin_nombre_36"/><clipPath id="clip-path-7"><path class="cls-1" d="M83.39,161.54a1,1,0,0,0-1,.81L79.94,178a6.63,6.63,0,0,1-.7,2.15A5.77,5.77,0,0,1,78,181.7,5,5,0,0,1,74.63,183,4.74,4.74,0,0,1,73,182.7a3,3,0,0,1-1.3-.87,3.57,3.57,0,0,1-.75-1.55,5.73,5.73,0,0,1,0-2.31l2.47-15.62a.59.59,0,0,0-.21-.57.82.82,0,0,0-.54-.24H67.12a.8.8,0,0,0-.56.25,1,1,0,0,0-.3.56L63.8,177.86a12.9,12.9,0,0,0,.1,5.35,7.69,7.69,0,0,0,2,3.53,8.12,8.12,0,0,0,3.41,1.95,15.17,15.17,0,0,0,4.34.6,17.88,17.88,0,0,0,4.51-.58,11.88,11.88,0,0,0,4-1.91,11.65,11.65,0,0,0,3.11-3.53,15.31,15.31,0,0,0,1.8-5.41l2.46-15.51a.72.72,0,0,0-.15-.56.76.76,0,0,0-.62-.25Z"/></clipPath><linearGradient id="Degradado_sin_nombre_36-7" x1="-200.6" y1="518.78" x2="-199.6" y2="518.78" gradientTransform="matrix(123.54, 0, 0, -123.54, 24893.38, 64268.02)" xlink:href="#Degradado_sin_nombre_36"/><clipPath id="clip-path-8"><path class="cls-1" d="M94.6,161.54a.9.9,0,0,0-.63.23,1,1,0,0,0-.3.61l-4,25.38a.68.68,0,0,0,.12.59.74.74,0,0,0,.55.19H109a.72.72,0,0,0,.79-.48.54.54,0,0,0,.19-.32l.7-4.39q.12-.81-.66-.81H97.59l.79-5h9.26a.78.78,0,0,0,.58-.22.82.82,0,0,0,.25-.45l.58-3.66a.49.49,0,0,0-.13-.51.78.78,0,0,0-.51-.16H99.18l.79-5H111.9a.87.87,0,0,0,.66-.27,1,1,0,0,0,.3-.56l.69-4.33a.76.76,0,0,0-.12-.61.66.66,0,0,0-.56-.23Z"/></clipPath><linearGradient id="Degradado_sin_nombre_36-8" x1="-200.6" y1="518.79" x2="-199.6" y2="518.79" gradientTransform="matrix(123.54, 0, 0, -123.54, 24913.92, 64268.79)" xlink:href="#Degradado_sin_nombre_36"/><clipPath id="clip-path-9"><path class="cls-1" d="M124.3,161.25a11.32,11.32,0,0,0-3.33,1.53,8.58,8.58,0,0,0-2.34,2.39,7.84,7.84,0,0,0-1.19,3.11,7.12,7.12,0,0,0,.09,2.93,6,6,0,0,0,1.28,2.41,9.33,9.33,0,0,0,2.44,2,22.55,22.55,0,0,0,3.6,1.67c.31.11.69.24,1.11.41a6.49,6.49,0,0,1,1.21.6,3.71,3.71,0,0,1,.94.8,1.25,1.25,0,0,1,.27,1,3.66,3.66,0,0,1-.31,1,2.43,2.43,0,0,1-.66.81,3.19,3.19,0,0,1-1.09.56,5.35,5.35,0,0,1-1.6.21,5,5,0,0,1-1.88-.35,7.71,7.71,0,0,1-1.7-1,8.59,8.59,0,0,1-1-.86q-.42-.43-.69-.69a2.44,2.44,0,0,0-.39-.33.62.62,0,0,0-.33-.11,1.34,1.34,0,0,0-.67.28l-3.67,3a1.28,1.28,0,0,0-.53.7,1.08,1.08,0,0,0,.3.74l0,0s0,0,0,0l0,0a.11.11,0,0,1,0,.05l0,0c.16.21.38.49.66.83a7.79,7.79,0,0,0,1.08,1.06,13,13,0,0,0,3.49,2,10.77,10.77,0,0,0,4,.76,14.57,14.57,0,0,0,4.3-.63,12.87,12.87,0,0,0,3.68-1.8,10.46,10.46,0,0,0,2.71-2.8,9.07,9.07,0,0,0,1.41-3.67,6.92,6.92,0,0,0-.15-3.26,5.71,5.71,0,0,0-1.5-2.31,10,10,0,0,0-2.58-1.67,35.49,35.49,0,0,0-3.38-1.35c-.64-.22-1.2-.43-1.68-.62a5.6,5.6,0,0,1-1.18-.61,2.1,2.1,0,0,1-.67-.7,1.37,1.37,0,0,1-.11-.89,1.8,1.8,0,0,1,.37-.87,2.22,2.22,0,0,1,.74-.58,3.29,3.29,0,0,1,1-.32,6.17,6.17,0,0,1,1.16-.11,3.56,3.56,0,0,1,1.13.18,5.41,5.41,0,0,1,1,.44,5.57,5.57,0,0,1,.87.6,9.54,9.54,0,0,1,.72.64l.14.15c.15.15.29.27.41.37a.71.71,0,0,0,.45.14,1.08,1.08,0,0,0,.68-.31l3.28-3a3,3,0,0,0,.44-.46,1,1,0,0,0,.19-.44.92.92,0,0,0-.16-.57,4,4,0,0,0-.56-.7,10.06,10.06,0,0,0-.87-.76,10.6,10.6,0,0,0-1.06-.76,10.09,10.09,0,0,0-2.84-1.21,12.71,12.71,0,0,0-3.15-.38,14.54,14.54,0,0,0-4.11.55"/></clipPath><linearGradient id="Degradado_sin_nombre_36-9" x1="-200.6" y1="518.79" x2="-199.6" y2="518.79" gradientTransform="matrix(123.54, 0, 0, -123.54, 24933.53, 64269)" xlink:href="#Degradado_sin_nombre_36"/><clipPath id="clip-path-10"><path class="cls-1" d="M142.49,161.54a1,1,0,0,0-.62.21.83.83,0,0,0-.32.56l-.69,4.34a.79.79,0,0,0,.13.67.69.69,0,0,0,.55.22h5.82l-3.19,20.14a.67.67,0,0,0,.18.61.71.71,0,0,0,.54.25h5.4a.92.92,0,0,0,.66-.26,1.08,1.08,0,0,0,.34-.6l3.18-20.14h5.89a.88.88,0,0,0,.67-.28,1.15,1.15,0,0,0,.31-.61l.69-4.34a.63.63,0,0,0-.19-.57.76.76,0,0,0-.53-.2Z"/></clipPath><linearGradient id="Degradado_sin_nombre_36-10" x1="-200.6" y1="518.77" x2="-199.6" y2="518.77" gradientTransform="matrix(123.54, 0, 0, -123.54, 24955.14, 64266.76)" xlink:href="#Degradado_sin_nombre_36"/><clipPath id="clip-path-11"><path class="cls-1" d="M169.78,176.53c.36-.72.71-1.44,1.06-2.18l1-2.19c.36-.72.7-1.4,1-2l1.49,8.4h-5.65q.5-.93,1-2m2.12-15a1,1,0,0,0-.31.07,1.54,1.54,0,0,0-.34.17,1.31,1.31,0,0,0-.28.24.6.6,0,0,0-.16.23l-13.92,25.57q-.21.36,0,.54a.77.77,0,0,0,.54.18h6a1,1,0,0,0,1-.61c.3-.57.6-1.13.91-1.69l.91-1.7H175l.36,1.7c.13.56.25,1.12.39,1.69a.73.73,0,0,0,.24.47.92.92,0,0,0,.57.14h5.82a1,1,0,0,0,.73-.22.59.59,0,0,0,.15-.6l-5.65-24.61-.29-1a2.2,2.2,0,0,0-.27-.34.7.7,0,0,0-.5-.19Z"/></clipPath><linearGradient id="Degradado_sin_nombre_36-11" x1="-200.6" y1="518.81" x2="-199.6" y2="518.81" gradientTransform="matrix(123.54, 0, 0, -123.54, 24970.55, 64270.84)" xlink:href="#Degradado_sin_nombre_36"/><clipPath id="clip-path-12"><path class="cls-1" d="M195.71,161.25a11.32,11.32,0,0,0-3.33,1.53,8.58,8.58,0,0,0-2.34,2.39,7.84,7.84,0,0,0-1.19,3.11,7.12,7.12,0,0,0,.09,2.93,6.13,6.13,0,0,0,1.28,2.41,9.33,9.33,0,0,0,2.44,2,22.55,22.55,0,0,0,3.6,1.67c.31.11.68.24,1.11.41a6.49,6.49,0,0,1,1.21.6,3.55,3.55,0,0,1,.94.8,1.25,1.25,0,0,1,.27,1,3.66,3.66,0,0,1-.31,1,2.56,2.56,0,0,1-.66.81,3.19,3.19,0,0,1-1.09.56,5.35,5.35,0,0,1-1.6.21,5,5,0,0,1-1.88-.35,7.71,7.71,0,0,1-1.7-1,8.59,8.59,0,0,1-1-.86q-.42-.43-.69-.69a2.44,2.44,0,0,0-.39-.33.62.62,0,0,0-.33-.11,1.34,1.34,0,0,0-.67.28l-3.67,3a1.28,1.28,0,0,0-.53.7,1.08,1.08,0,0,0,.3.74l0,0s0,0,0,0,0,0,0,0a.11.11,0,0,1,0,.05l.05,0c.16.21.38.49.66.83a7.79,7.79,0,0,0,1.08,1.06,13,13,0,0,0,3.49,2,10.77,10.77,0,0,0,4,.76,14.57,14.57,0,0,0,4.3-.63,12.87,12.87,0,0,0,3.68-1.8,10.46,10.46,0,0,0,2.71-2.8,9.07,9.07,0,0,0,1.41-3.67,6.79,6.79,0,0,0-.15-3.26,5.71,5.71,0,0,0-1.5-2.31,10,10,0,0,0-2.58-1.67,35.49,35.49,0,0,0-3.38-1.35c-.64-.22-1.2-.43-1.68-.62a5.36,5.36,0,0,1-1.18-.61,2.1,2.1,0,0,1-.67-.7,1.37,1.37,0,0,1-.11-.89,1.72,1.72,0,0,1,.38-.87,2.09,2.09,0,0,1,.73-.58,3.29,3.29,0,0,1,1-.32,6.17,6.17,0,0,1,1.16-.11,3.56,3.56,0,0,1,1.13.18,5.41,5.41,0,0,1,1,.44,5.57,5.57,0,0,1,.87.6,9.54,9.54,0,0,1,.72.64l.14.15c.15.15.29.27.41.37a.71.71,0,0,0,.45.14,1.08,1.08,0,0,0,.68-.31l3.28-3a3,3,0,0,0,.44-.46,1,1,0,0,0,.19-.44.92.92,0,0,0-.16-.57,4,4,0,0,0-.56-.7,10.06,10.06,0,0,0-.87-.76,10.6,10.6,0,0,0-1.06-.76,10.09,10.09,0,0,0-2.84-1.21,12.71,12.71,0,0,0-3.15-.38,14.54,14.54,0,0,0-4.11.55"/></clipPath><linearGradient id="Degradado_sin_nombre_36-12" x1="-200.6" y1="518.79" x2="-199.6" y2="518.79" gradientTransform="matrix(123.54, 0, 0, -123.54, 24992.63, 64268.99)" xlink:href="#Degradado_sin_nombre_36"/></defs><title>Recurso 1</title><g id="Capa_2" data-name="Capa 2"><g id="Capa_1-2" data-name="Capa 1"><g class="cls-2"><rect class="cls-3" x="2.5" y="69.11" width="90.44" height="81.02" transform="translate(-68.51 137.67) rotate(-80.04)"/></g><g class="cls-4"><rect class="cls-5" x="63.2" y="51.85" width="114.11" height="95.98" transform="translate(1.12 201.01) rotate(-80.04)"/></g><g class="cls-6"><rect class="cls-7" x="114.04" y="58.89" width="126.45" height="59.86" transform="translate(59.12 248.05) rotate(-80.04)"/></g><g class="cls-8"><rect class="cls-9" x="139.07" y="45.06" width="147.51" height="66.71" transform="matrix(0.17, -0.98, 0.98, 0.17, 98.78, 274.47)"/></g><g class="cls-10"><rect class="cls-11" x="4.89" y="159.35" width="31.56" height="31.21" transform="translate(-155.22 165.05) rotate(-80.04)"/></g><g class="cls-12"><rect class="cls-13" x="34.1" y="160.75" width="31.07" height="28.4" transform="translate(-131.27 193.58) rotate(-80.04)"/></g><g class="cls-14"><rect class="cls-15" x="60.6" y="159.91" width="31.84" height="30.5" transform="translate(-109.24 220.23) rotate(-80.04)"/></g><g class="cls-16"><rect class="cls-17" x="86.07" y="160.74" width="31.07" height="28.42" transform="translate(-88.29 244.76) rotate(-80.04)"/></g><g class="cls-18"><rect class="cls-19" x="109.54" y="160.95" width="31.85" height="27.76" transform="translate(-68.44 268.16) rotate(-80.04)"/></g><g class="cls-20"><rect class="cls-21" x="136.04" y="161.59" width="30.77" height="26.72" transform="translate(-47.08 293.84) rotate(-80.04)"/></g><g class="cls-22"><rect class="cls-23" x="154.26" y="159.35" width="31.56" height="31.21" transform="translate(-31.69 312.17) rotate(-80.04)"/></g><g class="cls-24"><rect class="cls-25" x="180.95" y="160.95" width="31.85" height="27.76" transform="translate(-9.38 338.5) rotate(-80.04)"/></g></g></g></svg>