<svg xmlns="http://www.w3.org/2000/svg" viewBox="0 0 84.06 84.2"><defs><style>.cls-1{fill:#e74c3c;}</style></defs><title>Recurso 3</title><g id="Capa_2" data-name="Capa 2"><g id="Capa_1-2" data-name="Capa 1"><path class="cls-1" d="M44.23,9.08V25.8L58.11,35.89l13.68-8V12.33a42.07,42.07,0,0,0-13-8.8Z"/><polygon class="cls-1" points="42.02 29.66 28.67 39.36 33.77 55.07 50.28 55.07 55.38 39.36 42.02 29.66"/><path class="cls-1" d="M53.22,82.67,61,70.13,50.93,59.48H33.12L23.06,70.13l7.8,12.55a41.71,41.71,0,0,0,22.36,0"/><path class="cls-1" d="M31.75,1.29,42,5.19l10.29-3.9a41.61,41.61,0,0,0-20.56,0"/><path class="cls-1" d="M73.52,32l-13.7,8-5.43,16.7,10,10.55,15-5.75c.49-1,1-1.95,1.39-3a42.32,42.32,0,0,0,3.3-14Z"/><path class="cls-1" d="M29.66,56.71,24.23,40l-13.7-8L0,44.6A42.1,42.1,0,0,0,3,57.87c.49,1.2,1,2.37,1.61,3.51L19.7,67.25Z"/><path class="cls-1" d="M75.41,67.74l-10.16,3.9L60,80.16A41.57,41.57,0,0,0,75.41,67.74"/><path class="cls-1" d="M76.2,17.53V28.35l7.66,9A42.54,42.54,0,0,0,81,26.34a41.8,41.8,0,0,0-4.84-8.81"/><path class="cls-1" d="M24.08,80.16,18.8,71.64,8.63,67.74A41.73,41.73,0,0,0,24.08,80.16"/><path class="cls-1" d="M25.94,35.89,39.82,25.81V9.08L25.21,3.53a41.89,41.89,0,0,0-12.95,8.8v15.6Z"/><path class="cls-1" d="M.19,37.4l7.66-9V17.53a41.93,41.93,0,0,0-4.56,8.13A42.57,42.57,0,0,0,.19,37.4"/></g></g></svg>